<svg width="56" height="56" viewBox="0 0 56 56" fill="none" xmlns="http://www.w3.org/2000/svg">
<path d="M49.0001 27.4131H7.00008C4.76008 27.4131 2.91675 25.5697 2.91675 23.3297V15.5831C2.91675 13.9964 4.01336 12.3864 5.48336 11.8031L26.4834 3.40312C27.37 3.05313 28.6301 3.05313 29.5168 3.40312L50.5168 11.8031C51.9868 12.3864 53.0834 14.0197 53.0834 15.5831V23.3297C53.0834 25.5697 51.2401 27.4131 49.0001 27.4131ZM28.0001 6.62314C27.9067 6.62314 27.8135 6.62302 27.7668 6.64635L6.79002 15.0464C6.65002 15.1164 6.41675 15.4197 6.41675 15.5831V23.3297C6.41675 23.6564 6.67341 23.9131 7.00008 23.9131H49.0001C49.3268 23.9131 49.5834 23.6564 49.5834 23.3297V15.5831C49.5834 15.4197 49.3735 15.1164 49.2101 15.0464L28.2101 6.64635C28.1635 6.62302 28.0934 6.62314 28.0001 6.62314Z" fill="white"/>
<path d="M51.3334 53.0833H4.66675C3.71008 53.0833 2.91675 52.29 2.91675 51.3333V44.3333C2.91675 42.0933 4.76008 40.25 7.00008 40.25H49.0001C51.2401 40.25 53.0834 42.0933 53.0834 44.3333V51.3333C53.0834 52.29 52.2901 53.0833 51.3334 53.0833ZM6.41675 49.5833H49.5834V44.3333C49.5834 44.0067 49.3268 43.75 49.0001 43.75H7.00008C6.67341 43.75 6.41675 44.0067 6.41675 44.3333V49.5833Z" fill="white"/>
<path d="M9.33325 43.7474C8.37659 43.7474 7.58325 42.9541 7.58325 41.9974V25.6641C7.58325 24.7074 8.37659 23.9141 9.33325 23.9141C10.2899 23.9141 11.0833 24.7074 11.0833 25.6641V41.9974C11.0833 42.9541 10.2899 43.7474 9.33325 43.7474Z" fill="white"/>
<path d="M18.6667 43.7474C17.7101 43.7474 16.9167 42.9541 16.9167 41.9974V25.6641C16.9167 24.7074 17.7101 23.9141 18.6667 23.9141C19.6234 23.9141 20.4167 24.7074 20.4167 25.6641V41.9974C20.4167 42.9541 19.6234 43.7474 18.6667 43.7474Z" fill="white"/>
<path d="M28 43.7474C27.0433 43.7474 26.25 42.9541 26.25 41.9974V25.6641C26.25 24.7074 27.0433 23.9141 28 23.9141C28.9567 23.9141 29.75 24.7074 29.75 25.6641V41.9974C29.75 42.9541 28.9567 43.7474 28 43.7474Z" fill="white"/>
<path d="M37.3333 43.7474C36.3766 43.7474 35.5833 42.9541 35.5833 41.9974V25.6641C35.5833 24.7074 36.3766 23.9141 37.3333 23.9141C38.2899 23.9141 39.0833 24.7074 39.0833 25.6641V41.9974C39.0833 42.9541 38.2899 43.7474 37.3333 43.7474Z" fill="white"/>
<path d="M46.6667 43.7474C45.7101 43.7474 44.9167 42.9541 44.9167 41.9974V25.6641C44.9167 24.7074 45.7101 23.9141 46.6667 23.9141C47.6234 23.9141 48.4167 24.7074 48.4167 25.6641V41.9974C48.4167 42.9541 47.6234 43.7474 46.6667 43.7474Z" fill="white"/>
<path d="M53.6666 53.0859H2.33325C1.37659 53.0859 0.583252 52.2926 0.583252 51.3359C0.583252 50.3793 1.37659 49.5859 2.33325 49.5859H53.6666C54.6232 49.5859 55.4166 50.3793 55.4166 51.3359C55.4166 52.2926 54.6232 53.0859 53.6666 53.0859Z" fill="white"/>
<path d="M28 21.5859C25.1067 21.5859 22.75 19.2293 22.75 16.3359C22.75 13.4426 25.1067 11.0859 28 11.0859C30.8933 11.0859 33.25 13.4426 33.25 16.3359C33.25 19.2293 30.8933 21.5859 28 21.5859ZM28 14.5859C27.0433 14.5859 26.25 15.3793 26.25 16.3359C26.25 17.2926 27.0433 18.0859 28 18.0859C28.9567 18.0859 29.75 17.2926 29.75 16.3359C29.75 15.3793 28.9567 14.5859 28 14.5859Z" fill="white"/>
</svg>
