<svg width="25" height="25" viewBox="0 0 25 25" fill="none" xmlns="http://www.w3.org/2000/svg">
<path d="M21.8752 12.2422H3.12516C2.12516 12.2422 1.30225 11.4192 1.30225 10.4192V6.96091C1.30225 6.25257 1.7918 5.53383 2.44805 5.27341L11.8231 1.52344C12.2189 1.36719 12.7814 1.36719 13.1773 1.52344L22.5523 5.27341C23.2085 5.53383 23.6981 6.26299 23.6981 6.96091V10.4192C23.6981 11.4192 22.8752 12.2422 21.8752 12.2422ZM12.5002 2.96094C12.4585 2.96094 12.4169 2.96089 12.396 2.97131L3.03138 6.72134C2.96888 6.75259 2.86475 6.88799 2.86475 6.96091V10.4192C2.86475 10.5651 2.97933 10.6797 3.12516 10.6797H21.8752C22.021 10.6797 22.1356 10.5651 22.1356 10.4192V6.96091C22.1356 6.88799 22.0419 6.75259 21.9689 6.72134L12.5939 2.97131C12.5731 2.96089 12.5418 2.96094 12.5002 2.96094Z" fill="white"/>
<path d="M22.9168 23.6979H2.0835C1.65641 23.6979 1.30225 23.3438 1.30225 22.9167V19.7917C1.30225 18.7917 2.12516 17.9688 3.12516 17.9688H21.8752C22.8752 17.9688 23.6981 18.7917 23.6981 19.7917V22.9167C23.6981 23.3438 23.3439 23.6979 22.9168 23.6979ZM2.86475 22.1354H22.1356V19.7917C22.1356 19.6458 22.021 19.5313 21.8752 19.5313H3.12516C2.97933 19.5313 2.86475 19.6458 2.86475 19.7917V22.1354Z" fill="white"/>
<path d="M4.1665 19.5339C3.73942 19.5339 3.38525 19.1797 3.38525 18.7526V11.4609C3.38525 11.0339 3.73942 10.6797 4.1665 10.6797C4.59359 10.6797 4.94775 11.0339 4.94775 11.4609V18.7526C4.94775 19.1797 4.59359 19.5339 4.1665 19.5339Z" fill="white"/>
<path d="M8.3335 19.5339C7.90641 19.5339 7.55225 19.1797 7.55225 18.7526V11.4609C7.55225 11.0339 7.90641 10.6797 8.3335 10.6797C8.76058 10.6797 9.11475 11.0339 9.11475 11.4609V18.7526C9.11475 19.1797 8.76058 19.5339 8.3335 19.5339Z" fill="white"/>
<path d="M12.5 19.5339C12.0729 19.5339 11.7188 19.1797 11.7188 18.7526V11.4609C11.7188 11.0339 12.0729 10.6797 12.5 10.6797C12.9271 10.6797 13.2812 11.0339 13.2812 11.4609V18.7526C13.2812 19.1797 12.9271 19.5339 12.5 19.5339Z" fill="white"/>
<path d="M16.6665 19.5339C16.2394 19.5339 15.8853 19.1797 15.8853 18.7526V11.4609C15.8853 11.0339 16.2394 10.6797 16.6665 10.6797C17.0936 10.6797 17.4478 11.0339 17.4478 11.4609V18.7526C17.4478 19.1797 17.0936 19.5339 16.6665 19.5339Z" fill="white"/>
<path d="M20.8335 19.5339C20.4064 19.5339 20.0522 19.1797 20.0522 18.7526V11.4609C20.0522 11.0339 20.4064 10.6797 20.8335 10.6797C21.2606 10.6797 21.6147 11.0339 21.6147 11.4609V18.7526C21.6147 19.1797 21.2606 19.5339 20.8335 19.5339Z" fill="white"/>
<path d="M23.9582 23.6953H1.0415C0.614421 23.6953 0.260254 23.3411 0.260254 22.9141C0.260254 22.487 0.614421 22.1328 1.0415 22.1328H23.9582C24.3853 22.1328 24.7394 22.487 24.7394 22.9141C24.7394 23.3411 24.3853 23.6953 23.9582 23.6953Z" fill="white"/>
<path d="M12.5 9.63281C11.2083 9.63281 10.1562 8.58073 10.1562 7.28906C10.1562 5.9974 11.2083 4.94531 12.5 4.94531C13.7917 4.94531 14.8438 5.9974 14.8438 7.28906C14.8438 8.58073 13.7917 9.63281 12.5 9.63281ZM12.5 6.50781C12.0729 6.50781 11.7188 6.86198 11.7188 7.28906C11.7188 7.71615 12.0729 8.07031 12.5 8.07031C12.9271 8.07031 13.2812 7.71615 13.2812 7.28906C13.2812 6.86198 12.9271 6.50781 12.5 6.50781Z" fill="white"/>
</svg>
