<svg width="105" height="105" viewBox="0 0 105 105" fill="none" xmlns="http://www.w3.org/2000/svg">
<path d="M96.25 52.5C96.25 58.4792 95.1016 64.1302 92.8047 69.4531C90.5078 74.776 87.3724 79.4245 83.3984 83.3984C79.4245 87.3724 74.776 90.5078 69.4531 92.8047C64.1302 95.1016 58.4792 96.25 52.5 96.25C46.4479 96.25 40.7786 95.1016 35.4922 92.8047C30.2057 90.5078 25.5755 87.3724 21.6016 83.3984C17.6276 79.4245 14.4922 74.776 12.1953 69.4531C9.89844 64.1302 8.75 58.4792 8.75 52.5C8.75 51.2604 9.16927 50.2214 10.0078 49.3828C10.8464 48.5443 11.8854 48.125 13.125 48.125C14.3646 48.125 15.4036 48.5443 16.2422 49.3828C17.0807 50.2214 17.5 51.2604 17.5 52.5C17.5 62.1979 20.9089 70.4557 27.7266 77.2734C34.5443 84.0911 42.8021 87.5 52.5 87.5C62.1979 87.5 70.4557 84.0911 77.2734 77.2734C84.0911 70.4557 87.5 62.1979 87.5 52.5C87.5 42.8021 84.0911 34.5443 77.2734 27.7266C70.4557 20.9089 62.1979 17.5 52.5 17.5C51.2604 17.5 50.2214 17.0807 49.3828 16.2422C48.5443 15.4036 48.125 14.3646 48.125 13.125C48.125 11.8854 48.5443 10.8464 49.3828 10.0078C50.2214 9.16927 51.2604 8.75 52.5 8.75C58.4792 8.75 64.1302 9.89844 69.4531 12.1953C74.776 14.4922 79.4245 17.6276 83.3984 21.6016C87.3724 25.5755 90.5078 30.2057 92.8047 35.4922C95.1016 40.7786 96.25 46.4479 96.25 52.5Z" fill="#AC6531"/>
</svg>
