<svg width="24" height="24" viewBox="0 0 24 24" fill="none" xmlns="http://www.w3.org/2000/svg">
<g clip-path="url(#clip0_1751_3022)">
<path d="M14.0972 6.67288C14.2692 6.81355 14.4239 6.96801 14.5781 7.12776C14.6127 7.1609 14.6473 7.19399 14.6829 7.22812C15.2837 7.83824 15.5312 8.7051 15.5391 9.53891C15.5302 10.484 15.2428 11.3473 14.5642 12.0211C14.5224 12.0614 14.4806 12.1018 14.4375 12.1434C14.4044 12.1779 14.3713 12.2125 14.3372 12.2481C13.9486 12.6308 13.4027 12.8795 12.8777 13.0118C12.7961 13.0271 12.7961 13.0271 12.75 13.0809C12.7961 13.0872 12.8422 13.0936 12.8897 13.1001C14.2168 13.299 15.3656 13.8542 16.3475 14.7664C16.4573 14.8658 16.571 14.9582 16.6875 15.0496C16.7396 15.0232 16.7396 15.0232 16.7928 14.9963C17.0946 14.8497 17.3913 14.7308 17.7129 14.6366C17.7458 14.6269 17.7786 14.6172 17.8124 14.6072C18.0149 14.55 18.213 14.5125 18.4219 14.4871C18.3834 14.4735 18.3448 14.4598 18.3051 14.4457C17.446 14.1303 16.8498 13.668 16.4563 12.8277C16.1591 12.1038 16.1768 11.298 16.4705 10.5801C16.8046 9.84463 17.3373 9.3689 18.0767 9.04138C18.816 8.78357 19.6299 8.84024 20.3379 9.15674C21.0236 9.49865 21.5454 10.1076 21.7969 10.8309C21.8774 11.118 21.9074 11.3917 21.9053 11.6893C21.905 11.7282 21.9047 11.7671 21.9045 11.8071C21.8894 12.5756 21.5837 13.2345 21.0469 13.784C20.6666 14.1141 20.2442 14.303 19.7813 14.4871C19.8317 14.498 19.8822 14.5088 19.9342 14.5199C21.2999 14.8209 22.4619 15.4937 23.2383 16.6844C23.6724 17.376 24.0012 18.1915 24.0083 19.0174C24.0089 19.0783 24.0095 19.1394 24.0101 19.2022C24.0105 19.2682 24.0109 19.3342 24.0112 19.4002C24.0114 19.4338 24.0116 19.4673 24.0118 19.5018C24.0128 19.679 24.0134 19.8562 24.0138 20.0334C24.0144 20.216 24.016 20.3985 24.0179 20.581C24.0191 20.7219 24.0195 20.8628 24.0197 21.0037C24.0199 21.071 24.0204 21.1383 24.0213 21.2055C24.0224 21.2998 24.0223 21.394 24.022 21.4882C24.0223 21.5417 24.0226 21.5952 24.0229 21.6502C23.988 21.8782 23.8852 22.0158 23.7154 22.1678C23.5023 22.2512 23.2964 22.2398 23.0696 22.2375C23.0184 22.2375 22.9671 22.2375 22.9143 22.2375C22.7452 22.2374 22.576 22.2364 22.4068 22.2352C22.2895 22.235 22.1721 22.2348 22.0547 22.2346C21.7775 22.2342 21.5003 22.233 21.223 22.2316C20.8763 22.2299 20.5296 22.2291 20.1829 22.2284C19.5647 22.2268 18.9464 22.2245 18.3281 22.2215C18.3298 22.2648 18.3314 22.3082 18.3331 22.3528C18.3266 22.5495 18.2645 22.6334 18.1406 22.784C17.9217 22.9638 17.7014 22.9445 17.4315 22.9428C17.3592 22.9432 17.3592 22.9432 17.2854 22.9436C17.1235 22.9442 16.9616 22.9439 16.7998 22.9436C16.6838 22.9438 16.5679 22.9442 16.4519 22.9446C16.1695 22.9453 15.8871 22.9454 15.6047 22.9452C15.3752 22.945 15.1457 22.945 14.9161 22.9453C14.8671 22.9453 14.8671 22.9453 14.8171 22.9454C14.7507 22.9454 14.6844 22.9455 14.618 22.9456C13.9956 22.9462 13.3732 22.946 12.7508 22.9454C12.1814 22.945 11.6121 22.9456 11.0427 22.9467C10.458 22.9479 9.87334 22.9483 9.28867 22.948C8.96045 22.9478 8.63219 22.9479 8.30397 22.9488C7.99539 22.9495 7.68677 22.9493 7.37819 22.9484C7.26484 22.9483 7.1515 22.9484 7.03816 22.9489C6.88356 22.9495 6.72906 22.949 6.57447 22.9481C6.52947 22.9486 6.48452 22.9491 6.43816 22.9495C6.17481 22.9466 6.0205 22.9149 5.81251 22.7371C5.67259 22.5599 5.66641 22.4426 5.67189 22.2215C5.64512 22.2217 5.61831 22.2218 5.5907 22.222C4.93811 22.2262 4.28551 22.2293 3.63292 22.2312C3.31736 22.2322 3.00175 22.2335 2.68614 22.2357C2.38164 22.2377 2.07709 22.2388 1.77255 22.2393C1.65634 22.2396 1.54014 22.2403 1.42394 22.2413C1.26119 22.2427 1.09848 22.2429 0.93578 22.2428C0.863639 22.2438 0.86364 22.2438 0.790046 22.2448C0.519624 22.2433 0.349233 22.2244 0.14064 22.034C0.00165534 21.8572 -0.0178443 21.7238 -0.0189224 21.5017C-0.0194849 21.4423 -0.0200954 21.383 -0.0207048 21.3218C-0.0206111 21.2572 -0.0204703 21.1926 -0.0202828 21.128C-0.0205172 21.0609 -0.0207512 20.9938 -0.0210324 20.9266C-0.0214543 20.7857 -0.021361 20.6449 -0.0208922 20.5039C-0.0204703 20.3609 -0.0207511 20.2179 -0.0218292 20.0749C-0.0331729 18.5616 -0.0331728 18.5616 0.187515 17.909C0.205233 17.8547 0.222952 17.8004 0.241233 17.7444C0.660015 16.5181 1.55261 15.578 2.68051 14.9691C3.16009 14.7343 3.68978 14.5641 4.21876 14.4871C4.16898 14.4667 4.1192 14.4463 4.06792 14.4253C3.71134 14.2761 3.388 14.1337 3.09376 13.8778C3.0227 13.8255 3.0227 13.8255 2.95023 13.7723C2.49161 13.3822 2.19292 12.7298 2.10939 12.1434C2.04508 11.2985 2.1977 10.5128 2.75917 9.85124C3.20842 9.35329 3.84297 8.9593 4.52331 8.89855C5.39092 8.86143 6.12719 8.99483 6.8057 9.57407C7.33872 10.0791 7.71756 10.7244 7.7485 11.469C7.74939 11.5424 7.74958 11.6158 7.74906 11.6893C7.74878 11.7282 7.7485 11.7671 7.74826 11.8071C7.73312 12.5756 7.42745 13.2345 6.89064 13.784C6.49998 14.1231 6.06686 14.3287 5.57814 14.4871C5.62019 14.494 5.66228 14.5009 5.70559 14.508C6.2904 14.6131 6.81527 14.814 7.35939 15.0496C7.38845 15.0184 7.41751 14.9871 7.44747 14.955C8.47145 13.8892 9.79276 13.2814 11.25 13.0809C11.1938 13.0599 11.1375 13.0388 11.0796 13.0172C10.0913 12.646 9.29317 12.1323 8.81252 11.159C8.4497 10.3282 8.29609 9.32657 8.60725 8.45052C8.62858 8.40074 8.64991 8.35091 8.67189 8.29963C8.69041 8.25496 8.6904 8.25496 8.7093 8.20935C8.91578 7.7204 9.18222 7.35426 9.56252 6.98713C9.59566 6.95258 9.62875 6.91799 9.66287 6.88241C10.7971 5.76552 12.8488 5.74344 14.0972 6.67288ZM10.3133 8.31229C9.93719 8.82172 9.88722 9.37405 9.93752 9.98713C10.0548 10.5555 10.4153 11.0071 10.875 11.3465C11.405 11.6413 11.9815 11.7186 12.5772 11.5957C13.1159 11.4113 13.5794 11.0533 13.8582 10.552C14.0989 10.0339 14.1749 9.41005 13.9863 8.85922C13.7275 8.27057 13.3207 7.84115 12.724 7.59065C11.818 7.26641 10.9201 7.61104 10.3133 8.31229ZM3.84376 10.8309C3.5868 11.2137 3.52197 11.5433 3.56251 12.0028C3.65931 12.3765 3.91394 12.7124 4.24516 12.911C4.59226 13.0751 4.89836 13.1459 5.27748 13.0503C5.72725 12.8891 6.04108 12.5916 6.24611 12.161C6.34023 11.7374 6.30583 11.352 6.09377 10.9715C5.89178 10.6572 5.60083 10.4791 5.25001 10.3621C4.68728 10.318 4.22964 10.3941 3.84376 10.8309ZM18 10.8309C17.743 11.2137 17.6782 11.5433 17.7188 12.0028C17.8156 12.3765 18.0702 12.7124 18.4014 12.911C18.7485 13.0751 19.0546 13.1459 19.4337 13.0503C19.8835 12.8891 20.1973 12.5916 20.4024 12.161C20.4965 11.7374 20.4621 11.352 20.25 10.9715C20.048 10.6572 19.7571 10.4791 19.4063 10.3621C18.8435 10.318 18.3859 10.3941 18 10.8309ZM8.39064 16.0809C7.80784 16.706 7.39516 17.499 7.20414 18.3309C7.19664 18.3631 7.18919 18.3953 7.18145 18.4284C6.97501 19.4116 7.07814 20.5705 7.07814 21.5184C10.3266 21.5184 13.575 21.5184 16.9219 21.5184C16.9958 18.7035 16.9958 18.7035 15.7969 16.3153C15.7637 16.2751 15.7306 16.2349 15.6964 16.1935C14.8316 15.1854 13.6219 14.6162 12.3077 14.493C10.7916 14.4265 9.44819 15.0093 8.39064 16.0809ZM2.39064 16.9715C1.34884 18.053 1.40626 19.3638 1.40626 20.8153C2.81392 20.8153 4.22158 20.8153 5.67189 20.8153C5.67189 20.3203 5.67189 19.8253 5.67189 19.3153C5.7445 18.2082 5.98994 17.2685 6.46877 16.2684C5.0297 15.6304 3.54311 15.887 2.39064 16.9715ZM17.5313 16.3153C17.567 16.3852 17.567 16.3852 17.6034 16.4566C18.3127 17.8821 18.3281 19.197 18.3281 20.8153C19.7358 20.8153 21.1435 20.8153 22.5938 20.8153C22.6135 18.6425 22.6135 18.6425 21.5156 16.8778C20.5592 15.9842 18.6555 15.3889 17.5313 16.3153Z" fill="white"/>
<path d="M14.3906 1.08049C14.5783 1.17433 14.7027 1.27643 14.8125 1.45549C14.8879 1.68175 14.8972 1.88046 14.8058 2.09941C14.7029 2.28011 14.5818 2.40874 14.4347 2.55391C14.4061 2.5826 14.3776 2.61129 14.3482 2.64086C14.2543 2.73508 14.16 2.82883 14.0656 2.92254C14 2.98807 13.9345 3.05369 13.8689 3.11927C13.7317 3.25647 13.5943 3.3934 13.4567 3.53013C13.2804 3.70544 13.1045 3.88127 12.9289 4.05724C12.7936 4.19261 12.6581 4.32775 12.5226 4.4628C12.4577 4.52758 12.3928 4.59236 12.3281 4.65729C12.2375 4.7478 12.1466 4.83808 12.0558 4.92822C12.029 4.95504 12.0023 4.9819 11.9748 5.00955C11.7619 5.21955 11.6254 5.31265 11.3261 5.31682C11.2833 5.31813 11.2404 5.31949 11.1962 5.32085C10.8724 5.26849 10.6407 4.98565 10.4187 4.76327C10.3681 4.71302 10.3681 4.71302 10.3165 4.66174C10.2456 4.59115 10.1749 4.52041 10.1043 4.44958C9.99616 4.34135 9.88746 4.23372 9.77871 4.12619C9.70976 4.05733 9.64085 3.98847 9.57199 3.91952C9.53951 3.8875 9.50707 3.85544 9.4736 3.82244C9.25821 3.60499 9.15077 3.45893 9.12598 3.1459C9.1316 2.95924 9.17721 2.83207 9.28123 2.67424C9.47632 2.49818 9.59473 2.43199 9.85545 2.42524C9.92107 2.42257 9.92107 2.42257 9.98801 2.4199C10.3609 2.47422 10.6189 2.8293 10.8691 3.0844C10.9103 3.12602 10.9515 3.16765 10.994 3.21054C11.0951 3.31282 11.1961 3.41529 11.2969 3.51799C11.5824 3.28211 11.8414 3.02482 12.1016 2.76138C12.1469 2.71577 12.1922 2.67016 12.2376 2.62455C12.4287 2.43232 12.6195 2.2398 12.8102 2.04705C12.9274 1.9286 13.0448 1.81038 13.1623 1.6923C13.2285 1.62574 13.2943 1.55894 13.3602 1.4921C13.4004 1.45174 13.4406 1.41133 13.4821 1.36975C13.5173 1.33418 13.5525 1.2986 13.5889 1.26194C13.8312 1.0465 14.0776 1.04327 14.3906 1.08049Z" fill="white"/>
</g>
<defs>
<clipPath id="clip0_1751_3022">
<rect width="24" height="24" fill="white"/>
</clipPath>
</defs>
</svg>
