<svg width="44" height="45" viewBox="0 0 44 45" fill="none" xmlns="http://www.w3.org/2000/svg">
<g filter="url(#filter0_d_1458_4300)">
<path d="M22.0002 10.5591C22.9723 10.5591 23.7602 9.77108 23.7602 8.79906C23.7602 7.82704 22.9723 7.03906 22.0002 7.03906C21.0282 7.03906 20.2402 7.82704 20.2402 8.79906C20.2402 9.77108 21.0282 10.5591 22.0002 10.5591Z" fill="#AC6531"/>
<path opacity="0.3" d="M22.0002 36.9614C22.9723 36.9614 23.7602 36.1734 23.7602 35.2014C23.7602 34.2294 22.9723 33.4414 22.0002 33.4414C21.0282 33.4414 20.2402 34.2294 20.2402 35.2014C20.2402 36.1734 21.0282 36.9614 22.0002 36.9614Z" fill="#AC6531"/>
<path opacity="0.3" d="M28.5998 12.3208C29.5719 12.3208 30.3598 11.5328 30.3598 10.5608C30.3598 9.58876 29.5719 8.80078 28.5998 8.80078C27.6278 8.80078 26.8398 9.58876 26.8398 10.5608C26.8398 11.5328 27.6278 12.3208 28.5998 12.3208Z" fill="#AC6531"/>
<path opacity="0.3" d="M15.4001 35.1997C16.3722 35.1997 17.1601 34.4117 17.1601 33.4397C17.1601 32.4677 16.3722 31.6797 15.4001 31.6797C14.4281 31.6797 13.6401 32.4677 13.6401 33.4397C13.6401 34.4117 14.4281 35.1997 15.4001 35.1997Z" fill="#AC6531"/>
<path opacity="0.93" d="M15.4001 12.3208C16.3722 12.3208 17.1601 11.5328 17.1601 10.5608C17.1601 9.58876 16.3722 8.80078 15.4001 8.80078C14.4281 8.80078 13.6401 9.58876 13.6401 10.5608C13.6401 11.5328 14.4281 12.3208 15.4001 12.3208Z" fill="#AC6531"/>
<path opacity="0.3" d="M28.5998 35.1997C29.5719 35.1997 30.3598 34.4117 30.3598 33.4397C30.3598 32.4677 29.5719 31.6797 28.5998 31.6797C27.6278 31.6797 26.8398 32.4677 26.8398 33.4397C26.8398 34.4117 27.6278 35.1997 28.5998 35.1997Z" fill="#AC6531"/>
<path opacity="0.65" d="M8.80004 23.7583C9.77206 23.7583 10.56 22.9703 10.56 21.9983C10.56 21.0263 9.77206 20.2383 8.80004 20.2383C7.82802 20.2383 7.04004 21.0263 7.04004 21.9983C7.04004 22.9703 7.82802 23.7583 8.80004 23.7583Z" fill="#AC6531"/>
<path opacity="0.3" d="M35.1999 23.7583C36.172 23.7583 36.9599 22.9703 36.9599 21.9983C36.9599 21.0263 36.172 20.2383 35.1999 20.2383C34.2279 20.2383 33.4399 21.0263 33.4399 21.9983C33.4399 22.9703 34.2279 23.7583 35.1999 23.7583Z" fill="#AC6531"/>
<path opacity="0.86" d="M10.5598 17.1606C11.5318 17.1606 12.3198 16.3726 12.3198 15.4006C12.3198 14.4286 11.5318 13.6406 10.5598 13.6406C9.58778 13.6406 8.7998 14.4286 8.7998 15.4006C8.7998 16.3726 9.58778 17.1606 10.5598 17.1606Z" fill="#AC6531"/>
<path opacity="0.3" d="M33.4402 30.3598C34.4122 30.3598 35.2002 29.5719 35.2002 28.5998C35.2002 27.6278 34.4122 26.8398 33.4402 26.8398C32.4682 26.8398 31.6802 27.6278 31.6802 28.5998C31.6802 29.5719 32.4682 30.3598 33.4402 30.3598Z" fill="#AC6531"/>
<path opacity="0.44" d="M10.5598 30.3598C11.5318 30.3598 12.3198 29.5719 12.3198 28.5998C12.3198 27.6278 11.5318 26.8398 10.5598 26.8398C9.58778 26.8398 8.7998 27.6278 8.7998 28.5998C8.7998 29.5719 9.58778 30.3598 10.5598 30.3598Z" fill="#AC6531"/>
<path opacity="0.3" d="M33.4402 17.1606C34.4122 17.1606 35.2002 16.3726 35.2002 15.4006C35.2002 14.4286 34.4122 13.6406 33.4402 13.6406C32.4682 13.6406 31.6802 14.4286 31.6802 15.4006C31.6802 16.3726 32.4682 17.1606 33.4402 17.1606Z" fill="#AC6531"/>
</g>
<defs>
<filter id="filter0_d_1458_4300" x="-4" y="0" width="52" height="52" filterUnits="userSpaceOnUse" color-interpolation-filters="sRGB">
<feFlood flood-opacity="0" result="BackgroundImageFix"/>
<feColorMatrix in="SourceAlpha" type="matrix" values="0 0 0 0 0 0 0 0 0 0 0 0 0 0 0 0 0 0 127 0" result="hardAlpha"/>
<feOffset dy="4"/>
<feGaussianBlur stdDeviation="2"/>
<feComposite in2="hardAlpha" operator="out"/>
<feColorMatrix type="matrix" values="0 0 0 0 0 0 0 0 0 0 0 0 0 0 0 0 0 0 0.25 0"/>
<feBlend mode="normal" in2="BackgroundImageFix" result="effect1_dropShadow_1458_4300"/>
<feBlend mode="normal" in="SourceGraphic" in2="effect1_dropShadow_1458_4300" result="shape"/>
</filter>
</defs>
</svg>
